<svg width="198" height="40" viewBox="0 0 198 40" fill="none" xmlns="http://www.w3.org/2000/svg">
<g clip-path="url(#clip0_2782_4824)">
<path d="M10.5324 9.33349C12.8521 9.33349 14.7126 10.1933 16.1139 11.9129C17.5269 13.6324 18.2333 16.188 18.2333 19.5793C18.2333 21.8245 17.9036 23.7172 17.2443 25.2577C16.5966 26.7862 15.6841 27.9445 14.5065 28.7327C13.3408 29.5088 11.9808 29.8968 10.4265 29.8968C9.43733 29.8968 8.57776 29.7657 7.84769 29.5028C7.11762 29.2402 6.49354 28.8998 5.97545 28.4818C5.45732 28.052 5.02166 27.5862 4.66839 27.0847H4.42112C4.47999 27.5623 4.53298 28.0938 4.58008 28.679C4.63895 29.252 4.66839 29.7775 4.66839 30.2552V38.3337H0.5V9.70966H3.89124L4.47411 12.4502H4.66839C5.03343 11.889 5.47499 11.3695 5.9931 10.8919C6.52298 10.4142 7.15883 10.0381 7.90067 9.76339C8.65429 9.47679 9.53153 9.33349 10.5324 9.33349ZM9.41967 12.7727C8.27748 12.7727 7.35901 13.0056 6.66428 13.4713C5.98133 13.9251 5.48088 14.6117 5.16294 15.5312C4.8568 16.4506 4.69195 17.603 4.66839 18.9883V19.5793C4.66839 21.0482 4.81558 22.2962 5.10996 23.3232C5.41612 24.3382 5.91656 25.1143 6.61129 25.6517C7.31781 26.177 8.27158 26.4398 9.47266 26.4398C10.4853 26.4398 11.3214 26.1592 11.9808 25.598C12.6519 25.0367 13.1524 24.2367 13.4821 23.1978C13.8118 22.1588 13.9767 20.9348 13.9767 19.5257C13.9767 17.3882 13.5998 15.7283 12.8462 14.546C12.1044 13.3638 10.9622 12.7727 9.41967 12.7727ZM32.9464 9.33349C33.276 9.33349 33.6352 9.35141 34.024 9.38724C34.4124 9.42306 34.748 9.47083 35.0307 9.53054L34.6419 13.4713C34.3947 13.3996 34.0885 13.3459 33.7236 13.3101C33.3703 13.2742 33.0523 13.2564 32.7699 13.2564C32.0279 13.2564 31.3215 13.3816 30.6502 13.6324C29.9791 13.8714 29.3843 14.2415 28.8662 14.7431C28.3481 15.2327 27.9421 15.8477 27.6476 16.588C27.3532 17.3283 27.2061 18.1882 27.2061 19.1675V29.5387H23.0376V9.70966H26.2876L26.8527 13.2025H27.0471C27.4356 12.498 27.9183 11.8532 28.4955 11.268C29.0724 10.6829 29.7318 10.2172 30.4737 9.87088C31.2272 9.51261 32.0515 9.33349 32.9464 9.33349ZM46.3171 9.33349C48.7898 9.33349 50.6562 9.88878 51.9162 10.9994C53.1878 12.1099 53.8238 13.8415 53.8238 16.194V29.5387H50.8741L50.0792 26.7265H49.938C49.3846 27.443 48.8134 28.0342 48.2247 28.4998C47.6359 28.9655 46.9529 29.3118 46.1758 29.5387C45.4104 29.7775 44.4743 29.8968 43.3675 29.8968C42.2016 29.8968 41.1595 29.682 40.2411 29.252C39.3226 28.8103 38.5985 28.1415 38.0686 27.2458C37.5388 26.3503 37.2737 25.216 37.2737 23.8425C37.2737 21.8005 38.0216 20.266 39.517 19.239C41.0241 18.2122 43.2968 17.6448 46.3348 17.5373L49.726 17.412V16.3731C49.726 14.9997 49.408 14.0206 48.7722 13.4355C48.1481 12.8503 47.265 12.5577 46.1229 12.5577C45.1455 12.5577 44.1976 12.701 43.2792 12.9876C42.3607 13.2742 41.4657 13.6266 40.5944 14.0444L39.2519 11.071C40.2057 10.5575 41.2892 10.1396 42.5019 9.81713C43.7266 9.49471 44.9982 9.33349 46.3171 9.33349ZM49.7083 20.063L47.1826 20.1527C45.1102 20.2243 43.6558 20.5825 42.8199 21.2273C41.9838 21.8722 41.5658 22.7558 41.5658 23.8785C41.5658 24.8575 41.8542 25.5742 42.4313 26.0278C43.0083 26.4697 43.7678 26.6907 44.7098 26.6907C46.1464 26.6907 47.3356 26.2787 48.2776 25.4547C49.2314 24.6188 49.7083 23.3947 49.7083 21.7825V20.063ZM64.1034 29.5387L56.6673 9.70966H61.0654L65.0925 21.3527C65.3516 22.093 65.587 22.8932 65.7991 23.753C66.011 24.6128 66.1583 25.3353 66.2405 25.9205H66.3819C66.4645 25.3113 66.6234 24.583 66.8588 23.735C67.0944 22.8753 67.3357 22.0812 67.5829 21.3527L71.6101 9.70966H75.9904L68.5543 29.5387H64.1034ZM96.2673 19.5793C96.2673 21.2273 96.0552 22.6902 95.6313 23.968C95.2074 25.2458 94.5893 26.3265 93.7769 27.21C92.9643 28.0818 91.987 28.7505 90.8449 29.2162C89.7026 29.6702 88.4132 29.8968 86.9766 29.8968C85.6342 29.8968 84.4038 29.6702 83.2852 29.2162C82.1665 28.7505 81.1951 28.0818 80.3709 27.21C79.5582 26.3265 78.9283 25.2458 78.4808 23.968C78.0335 22.6902 77.8097 21.2273 77.8097 19.5793C77.8097 17.3942 78.1805 15.5432 78.9224 14.0266C79.6759 12.498 80.7476 11.3337 82.1371 10.5336C83.5265 9.73354 85.1809 9.33349 87.1002 9.33349C88.9018 9.33349 90.4914 9.73354 91.8693 10.5336C93.2469 11.3337 94.3244 12.498 95.1014 14.0266C95.8787 15.555 96.2673 17.4062 96.2673 19.5793ZM82.0841 19.5793C82.0841 21.0243 82.2548 22.2603 82.5963 23.2873C82.9496 24.3143 83.4912 25.1023 84.2214 25.6517C84.9514 26.189 85.8934 26.4577 87.0474 26.4577C88.2013 26.4577 89.1433 26.189 89.8735 25.6517C90.6035 25.1023 91.1392 24.3143 91.4807 23.2873C91.8222 22.2603 91.9929 21.0243 91.9929 19.5793C91.9929 18.1345 91.8222 16.9105 91.4807 15.9074C91.1392 14.8924 90.6035 14.1221 89.8735 13.5967C89.1433 13.0593 88.1954 12.7906 87.0296 12.7906C85.3105 12.7906 84.0564 13.3758 83.2676 14.546C82.4786 15.7163 82.0841 17.3942 82.0841 19.5793ZM121.603 26.4935C122.144 26.4935 122.68 26.4458 123.21 26.3503C123.74 26.2428 124.223 26.1173 124.658 25.9742V29.1625C124.199 29.3657 123.604 29.5387 122.874 29.682C122.144 29.8253 121.385 29.8968 120.596 29.8968C119.489 29.8968 118.494 29.7118 117.611 29.3417C116.728 28.9595 116.027 28.3088 115.509 27.3892C114.991 26.4697 114.732 25.1978 114.732 23.574V12.9159H112.065V11.0352L114.926 9.54844L116.286 5.30321H118.9V9.70966H124.499V12.9159H118.9V23.5202C118.9 24.5232 119.148 25.2697 119.642 25.7592C120.137 26.2488 120.79 26.4935 121.603 26.4935ZM136.422 9.33349C138.164 9.33349 139.66 9.69773 140.908 10.4262C142.156 11.1546 143.116 12.1875 143.787 13.525C144.458 14.8625 144.794 16.4626 144.794 18.3255V20.5825H131.741C131.788 22.5052 132.294 23.9858 133.26 25.0248C134.237 26.0637 135.603 26.5832 137.358 26.5832C138.606 26.5832 139.725 26.4637 140.714 26.2248C141.715 25.9742 142.745 25.61 143.805 25.1322V28.5535C142.827 29.0193 141.832 29.3597 140.82 29.5745C139.807 29.7895 138.594 29.8968 137.181 29.8968C135.262 29.8968 133.572 29.5208 132.112 28.7685C130.664 28.0043 129.527 26.8697 128.703 25.3652C127.891 23.8605 127.484 21.9917 127.484 19.7585C127.484 17.5373 127.855 15.6506 128.597 14.0981C129.339 12.5458 130.381 11.3636 131.723 10.5515C133.066 9.73951 134.632 9.33349 136.422 9.33349ZM136.422 12.504C135.115 12.504 134.055 12.9339 133.242 13.7937C132.442 14.6534 131.971 15.9134 131.829 17.5732H140.731C140.72 16.582 140.555 15.7044 140.237 14.9401C139.931 14.1758 139.46 13.5787 138.824 13.1488C138.2 12.7189 137.399 12.504 136.422 12.504ZM157.352 29.8968C155.503 29.8968 153.902 29.5327 152.548 28.8043C151.194 28.0758 150.152 26.9593 149.422 25.4547C148.691 23.95 148.327 22.0393 148.327 19.7227C148.327 17.3105 148.727 15.3401 149.527 13.8117C150.328 12.2831 151.435 11.1546 152.848 10.4262C154.273 9.69773 155.904 9.33349 157.74 9.33349C158.906 9.33349 159.96 9.45293 160.902 9.69176C161.856 9.91863 162.662 10.1993 163.321 10.5336L162.086 13.9012C161.367 13.6026 160.631 13.3518 159.878 13.1488C159.124 12.9459 158.4 12.8443 157.705 12.8443C156.563 12.8443 155.609 13.1012 154.844 13.6146C154.09 14.128 153.525 14.8924 153.148 15.9074C152.783 16.9223 152.601 18.1823 152.601 19.6868C152.601 21.1438 152.789 22.3737 153.166 23.3768C153.543 24.368 154.102 25.1203 154.844 25.6338C155.586 26.1353 156.498 26.3862 157.582 26.3862C158.653 26.3862 159.613 26.2548 160.461 25.992C161.308 25.7293 162.109 25.389 162.862 24.971V28.6252C162.121 29.0552 161.326 29.3715 160.478 29.5745C159.631 29.7895 158.588 29.8968 157.352 29.8968ZM171.606 1.66699V8.67074C171.606 9.39918 171.581 10.1097 171.535 10.8023C171.499 11.4949 171.458 12.0323 171.411 12.4144H171.64C172.054 11.7218 172.56 11.1546 173.161 10.7127C173.76 10.259 174.431 9.91863 175.173 9.69176C175.927 9.46486 176.728 9.35139 177.575 9.35139C179.071 9.35139 180.343 9.60816 181.392 10.1216C182.439 10.6232 183.239 11.4054 183.794 12.4682C184.357 13.531 184.641 14.9102 184.641 16.6059V29.5387H180.491V17.3942C180.491 15.8537 180.179 14.7013 179.555 13.9371C178.929 13.1608 177.964 12.7727 176.657 12.7727C175.398 12.7727 174.397 13.0413 173.655 13.5787C172.926 14.1041 172.401 14.8864 172.084 15.9252C171.764 16.9522 171.606 18.2062 171.606 19.6868V29.5387H167.454V1.66699H171.606Z" fill="white"/>
<path d="M101.328 19.4897C101.328 17.4835 101.517 15.525 101.893 13.6144C102.282 11.7038 102.871 9.88265 103.66 8.15112C104.449 6.41959 105.444 4.8194 106.645 3.35059H110.266C108.582 5.63144 107.31 8.15709 106.45 10.9276C105.603 13.698 105.179 16.5402 105.179 19.4538C105.179 21.3525 105.367 23.2335 105.744 25.0962C106.121 26.9592 106.686 28.7503 107.44 30.47C108.193 32.2015 109.123 33.8257 110.23 35.3422H106.645C105.444 33.9092 104.449 32.3447 103.66 30.649C102.871 28.9533 102.282 27.1622 101.893 25.2755C101.517 23.3885 101.328 21.46 101.328 19.4897ZM197.502 19.4718C197.502 21.454 197.314 23.3885 196.936 25.2755C196.56 27.1622 195.977 28.9533 195.188 30.649C194.411 32.3447 193.41 33.9092 192.185 35.3422H188.618C189.724 33.8257 190.653 32.2015 191.409 30.47C192.162 28.7385 192.727 26.9413 193.104 25.0783C193.48 23.2155 193.669 21.3347 193.669 19.436C193.669 17.5013 193.474 15.5907 193.086 13.704C192.709 11.8172 192.144 10.0021 191.39 8.25859C190.635 6.50319 189.701 4.86719 188.582 3.35059H192.185C193.41 4.8194 194.411 6.41959 195.188 8.15112C195.977 9.88265 196.56 11.7038 196.936 13.6144C197.314 15.5132 197.502 17.4657 197.502 19.4718Z" fill="#8C26EA"/>
</g>
<defs>
<clipPath id="clip0_2782_4824">
<rect width="197" height="40" fill="white" transform="translate(0.5)"/>
</clipPath>
</defs>
</svg>
